<svg width="118" height="48" viewBox="0 0 118 48" fill="none" xmlns="http://www.w3.org/2000/svg">
<path fill-rule="evenodd" clip-rule="evenodd" d="M15.6575 22.458C15.6575 22.458 18.0444 22.2628 18.0444 20.0711V3.9932C18.0444 2.56706 17.6541 0 14.5767 0H2.98739H0V45.3213H14.5316C14.5316 45.3213 18.2246 45.3513 18.2246 41.6283V25.04C18.2246 25.04 18.3897 22.458 15.6575 22.458ZM6.65033 6.09488H10.1631C11.3641 6.09488 11.229 7.04064 11.229 7.04064V19.0052C11.229 19.8759 10.4634 19.7108 10.4634 19.7108H6.65033V6.09488ZM11.5142 26.8415V38.4308C11.5142 39.5116 10.4484 39.4966 10.4484 39.4966H6.65033V25.5054C6.65033 25.5054 8.78203 25.5505 10.2232 25.5505C11.6643 25.5505 11.5142 26.8415 11.5142 26.8415ZM51.281 45.3213H44.3604V0.0900776L51.281 0V45.3213ZM59.8829 6.245H54.4786V0H72.4029V6.10989H66.6984V45.3213H59.8829V6.245ZM88.1806 26.4362C88.1806 28.4628 89.2314 30.1141 89.2314 30.1141C89.2314 30.1141 90.012 31.4952 90.3273 32.1407C90.6426 32.7862 90.3874 33.0264 90.3874 33.0264L87.7603 37.9504L82.2959 28.4628V0H75.4954V28.763L82.2959 40.6375C78.3627 46.267 82.416 48.729 83.6019 47.8133C84.2949 47.2782 84.0755 46.7893 83.7734 46.1158C83.5585 45.6368 83.3017 45.0643 83.3017 44.3155C83.3017 42.514 84.2474 43.8351 84.2474 43.8351L85.1932 45.2912L92.1438 33.5819L94.891 28.2376V0H88.1806V26.4362ZM98.0285 16.4382L107.471 0L117.739 16.6333V45.3063H110.939V31.5403L104.814 31.4952L104.874 45.2913H98.0285V16.4382ZM104.724 25.7006H110.924V16.8735L105.324 7.491L102.472 12.2048C102.472 12.2048 102.157 12.6101 102.472 13.2106L103.808 15.5825L104.304 16.4382C104.304 16.4382 104.649 16.9636 104.649 17.8343C104.649 18.705 104.724 25.7006 104.724 25.7006ZM22.0827 0.0150367L35.3083 0.0900968C38.5509 0.165157 40.5775 1.32108 40.6826 4.17337V21.152C40.6826 23.5689 37.6802 25.5204 37.6802 25.5204L40.6826 30.6696V45.3213H33.9722V31.21L30.8347 25.9708H28.763V45.3213H22.0827V0.0150367ZM33.5819 19.2905V6.77044C33.5819 6.77044 33.8071 5.98982 32.8013 5.98982C31.7955 5.98982 28.8681 6.06488 28.8681 6.06488V20.1011H32.7712C32.7712 20.1011 33.5819 20.1612 33.5819 19.2905Z" fill="white"/>
<path d="M89.2314 30.1141C89.2314 30.1141 88.1806 28.4628 88.1806 26.4362V0H94.891V28.2376L92.1438 33.5819L87.7603 40.9666V37.9504L90.3874 33.0264C90.3874 33.0264 90.6426 32.7862 90.3273 32.1407C90.0121 31.4952 89.2314 30.1141 89.2314 30.1141Z" fill="#BEBEBE"/>
</svg>
