<svg width="375" height="654" viewBox="0 0 375 654" fill="none" xmlns="http://www.w3.org/2000/svg">
<g opacity="0.03">
<path d="M225.041 366.275L231.112 378.028L228.695 379.379L225.041 383.46L223.589 385.726L222.371 388.211L221.883 390.914L221.415 393.408L221.883 396.346L222.127 398.613L223.101 401.551L224.319 403.582L225.781 406.067L230.156 409.694L232.339 411.046L235.244 411.726L226.746 418.047L218.482 423.714L200.512 434.333L191.275 438.867L181.812 443.166L176.715 444.97L171.862 446.322L161.649 447.682H159.963L161.902 450.847L162.877 454.247L163.345 457.865L163.111 461.475L162.136 468.485L161.649 471.885V475.495L161.893 479.122L162.867 482.522L164.32 485.678L168.217 492.017L170.653 494.502L173.323 496.986L176.228 499.018L173.07 499.471H169.679L166.512 498.573L163.111 498.347L159.954 497.213L157.049 495.853L151.456 492.697L153.404 496.533L156.075 499.689L159.476 502.628L163.355 504.441L159.719 504.894L155.597 505.348H151.718L143.942 504.441L140.288 502.854L136.634 501.049L133.233 499.009L135.172 504.676L136.39 507.379L138.339 509.864L140.278 512.131L142.218 514.162L144.888 515.976L147.539 517.284L143.173 517.057L139.519 516.159L135.397 515.252L131.996 513.447L128.595 511.416L125.438 508.478L122.767 505.775L120.575 502.148L121.549 504.642L122.037 506.908L121.549 511.442L117.427 507.824L113.061 504.886L108.451 503.29L103.111 502.157L105.294 507.126L108.695 510.963L110.887 512.767L113.07 514.119L115.741 515.252L118.177 515.932L114.298 516.604H110.897L107.243 515.932L103.842 514.799L100.694 512.767L98.2578 510.283L96.0654 507.344L94.6132 504.406L95.3346 507.109L95.8218 509.812L95.3346 512.75L94.8661 515.915L93.6481 518.4L91.943 520.893L90.2565 523.378L88.0641 524.947L87.5769 523.378L87.1085 521.111L85.8905 519.751L84.6725 517.938L82.9861 517.031L81.2996 515.897L79.3508 515.444L77.1585 515.217L73.5045 515.897L71.5651 517.031L70.1129 517.938L68.6513 519.751L67.4333 521.111L66.9461 523.378L66.7025 524.947L64.0323 523.378L62.3271 521.565L60.3783 519.08L59.1604 516.586L57.9424 510.945V508.242L58.4296 505.758L55.5251 508.242L51.8712 510.727L48.2172 512.759L44.5632 514.563L40.6844 515.924L36.7962 517.275L32.6738 517.955L28.2984 518.635L29.0292 522.471L28.2984 526.308L26.8462 530.371L24.4102 533.544L21.0186 536.029L17.1211 537.598L13.2422 538.505L9.11982 538.052L10.572 536.247L11.5464 534.678L12.2772 532.411V530.371L12.0336 528.339L11.0592 526.072L9.84124 524.259L7.89246 522.907L5.95305 521.774L3.77005 521.103H1.33407L-0.848936 521.774L-2.78835 522.454L-4.49353 524.023L-6.17998 525.837L-6.91077 527.406L-9.09378 526.055L-11.0613 524.241L-12.5135 522.21L-13.4879 519.725V517.685L-13.2443 515.88L-12.2699 514.067L-10.8083 512.715L-8.37236 510.684L-5.21496 508.417L-0.595972 506.385L4.5102 504.572L13.973 500.954L23.4546 496.882L32.449 491.912L39.4945 487.378L46.2872 481.955L46.0529 482.409L38.5202 486.245L30.9874 489.401L14.4696 494.371L6.45898 497.074L-1.31739 500.474L-8.84081 504.546L-12.0076 507.248L-14.6778 510.649H-15.165L-17.348 509.515L-19.5404 508.164L-21.2268 505.897L-22.4448 503.857L-23.4192 501.372L-23.6628 498.878V496.176L-23.1756 493.682L-20.9926 494.589L-18.8096 495.042L-16.3736 494.589L-14.1906 494.362L-12.2418 493.229L-10.293 491.869L-7.85705 488.242L-7.36985 486.219V484.179L-7.61345 481.694L-8.34424 479.889L-9.56223 477.858L-11.0332 476.497L-12.9726 474.911L-15.1556 474.231H-14.6684L-11.2674 472.661L-7.86642 471.074L-4.21246 470.394H3.25474L6.9087 471.074L21.2435 474.693L24.6351 475.364L28.2891 475.591L32.4115 475.364L36.0654 474.231L39.2228 472.199L42.3802 469.714L37.7706 471.528L32.8987 472.199L28.2891 472.652L19.0605 471.746L14.4415 470.839L10.0755 469.034L8.12669 467.901L6.44025 466.541L5.95305 463.376L6.68385 460.211L8.86685 457.508L10.0848 456.601L11.5371 455.921L14.4415 458.406L17.6083 460.219L21.0092 461.353H24.6445L28.0455 460.002L31.2029 457.97L33.6388 455.267L35.1098 452.102L37.78 453.454L39.963 455.267L42.146 457.534L43.8325 460.019L46.9898 464.771L48.4608 470.412L48.2078 469.74L54.0448 467.709L72.7456 464.309L79.0698 462.94L85.1316 461.37L88.289 460.237L91.1934 458.423L93.873 456.392L96.056 453.454L97.5176 451.187L99.204 448.249L100.178 445.31L100.666 442.59L101.631 436.722L103.092 431.055L104.779 428.117L106.465 425.414L109.145 423.383L111.815 421.569L114.972 420.436L117.642 419.764L120.8 419.311L123.967 419.764L113.033 418.631L102.352 417.271L91.6712 414.795L81.234 411.63L73.7013 410.723L65.9249 410.27L58.1485 410.723L50.3721 411.63L54.9817 408.23L60.0879 405.283L65.1941 402.798L70.7781 400.766L76.3527 399.633L82.4427 398.935H88.2703L93.8636 399.389L92.6456 395.779L91.9242 391.925L92.8986 388.089L94.6038 384.471L97.274 381.768L100.675 379.501L104.797 378.594H108.451L107.955 381.768L108.198 385.151L109.416 388.089L111.599 390.574L112.817 392.606L116.471 395.552L118.654 396.459L121.325 396.913L123.273 397.131L125.944 396.913L128.136 396.459L132.746 395.099L136.634 393.294L141.009 391.254L144.888 388.769L152.664 383.8L160.684 379.501L168.461 376.101L176.237 373.616L184.501 371.585L192.745 370.224L208.767 367.958L225.041 366.144V366.275Z" fill="white"/>
<path d="M268.776 531.46L268.289 528.06L267.071 524.442L265.609 521.277L263.173 518.574L270.453 485.792L266.574 483.76L259.772 514.276L242.533 539.595L240.818 533.945L239.6 528.295L238.87 522.628L239.113 516.761L239.835 511.093L241.802 505.444L243.742 500.247L246.646 495.042L243.489 493.473L243.001 495.958L242.036 497.989L240.331 500.256L236.677 503.656L234.241 504.79L232.058 505.47L229.135 506.15H226.699L224.02 505.696L221.359 505.243L219.166 504.11L217.227 502.758L215.278 501.407L213.339 499.14L212.374 497.108L215.278 498.913L218.436 499.82L221.837 500.273L225.238 499.367L228.404 498.007L230.84 495.975L232.527 493.49L233.988 490.325L236.424 476.532L236.668 471.78L236.424 466.811L236.912 455.965L236.424 444.892L236.668 434.046L238.12 423.409L241.287 413.007L243.226 407.602L245.662 402.85L250.281 392.231L253.673 381.376L254.404 375.953L254.647 371.201L254.16 365.778L253.195 360.808L251.246 356.065L249.063 351.322L246.393 347.242L242.992 342.952L241.774 341.819L245.409 349.735L248.089 358.105L249.307 366.475L249.794 375.281L248.576 383.869L245.906 392.239L242.514 399.912L237.886 407.384L234.251 406.704L231.346 404.89L228.91 402.859L226.962 399.458L226.212 396.058L226.474 392.222L227.927 388.595L230.597 385.892L233.033 384.087L236.19 382.954L237.642 382.736L235.703 377.539L233.267 372.57L230.597 367.6L227.439 362.63L223.551 358.332L219.663 354.269L215.053 350.197L210.181 347.251L239.085 356.527L233.258 349.744L226.203 343.414L218.679 337.991L214.313 335.96L210.191 333.693L185.419 324.207L179.582 322.167L173.998 319.464L168.404 316.064L163.785 312.663L160.394 309.498L157.724 306.325L156.993 304.973L158.932 292.54L155.053 298.208L150.425 303.404L145.085 308.374L139.501 313.117L138.536 309.28L138.039 305.209V301.372L138.292 297.536L136.587 301.372L134.151 304.991L130.993 308.164L127.358 310.196L128.089 309.289L128.323 307.72V306.813L127.602 305.226L125.897 304.319L124.679 303.866L122.73 306.351L121.268 308.844L120.294 311.547L119.572 314.485V317.65L119.807 320.371L120.781 323.309L121.999 326.012L122.973 327.363L119.807 324.66L116.902 321.504L114.232 318.33L110.831 310.658L110.1 306.822L109.613 302.985L110.1 298.687V297.554L108.152 305.924L106.934 309.76L104.985 313.823L102.802 317.659L100.366 321.059L97.4613 324.669L94.5569 327.834L95.2783 324.896L96.0091 322.193V319.019L95.7655 316.09L93.8261 310.667L92.3645 307.728L90.4158 305.235L89.1978 303.875L87.4926 312.698L87.0241 321.068V329.874L87.4926 338.471L83.3702 335.306L79.9692 331.007L77.299 326.491L75.8374 321.521L75.5938 319.481L74.1322 324.678L72.1928 329.211L68.5388 333.501L64.66 337.119L62.9455 338.026L61.7275 335.541L60.2659 333.048L58.3265 331.016L56.1435 328.985L51.2903 326.047L48.1235 324.913L45.4533 324.686H41.0779L36.7119 325.366L32.5895 327.171L28.9355 329.656L28.6919 329.883L29.9099 332.15L30.8749 334.643L31.3621 336.683V339.168L31.1185 341.653L30.3877 343.92L27.9517 348.218L27.221 348.654L26.9867 346.387L25.7687 344.356L24.3072 342.542L22.3677 341.191L19.6975 340.058H16.0436L13.3734 341.191L10.4689 342.996L9.25095 344.801L8.27657 346.832L7.78937 348.872L8.03297 351.139L8.27657 352.49L4.64134 351.81L1.47457 350.241L-1.19563 348.654L-3.63161 346.169L-4.84959 344.365L-8.50356 347.521L-12.3917 350.014L-16.7671 351.819L-21.3767 352.726H-22.9789L-22.2574 357.469L-23.2225 361.549L-25.4055 365.386L-26.8671 367.19L-28.8158 368.777L-32.2168 370.809L-35.8521 371.489H-39.9745L-44.0969 370.355L-45.3149 370.129L-44.0969 367.19V364.034L-44.8277 361.314L-46.7765 359.047L-49.9245 357.007L-51.8733 356.571H-53.3349L-56.9888 357.469L-58.2068 358.376L-59.912 359.509L-61.3642 362.447L-63.8002 359.047L-65.0182 355.647L-65.5054 354.513V353.833L-65.0182 351.793L-64.2874 349.988L-63.3224 348.855L-58.2162 344.783L-53.11 341.627L-39.2624 333.71L-33.1912 329.639L-28.0944 323.998L-26.3892 321.059L-41.4361 330.266L-49.2124 335.236L-56.7359 340.432L-61.3548 343.833L-66.6952 346.318L-68.8783 347.216H-71.08L-72.7664 346.318L-75.9238 344.957L-78.8283 343.388L-81.2642 341.121L-82.7165 338.636L-83.4473 337.956L-77.1325 337.05L-74.6965 335.245L-72.7571 332.751L-71.2955 329.142V325.305L-72.5135 321.905L-74.9495 318.958L-76.8889 317.825L-78.3504 317.145L-80.5335 316.918L-82.4729 316.465H-83.9344L-83.4473 314.433L-82.4729 312.628L-81.2549 310.824L-79.3155 309.237L-78.3411 308.783L-74.6871 308.112L-71.0519 307.659L-59.8745 308.339H-53.5503L-47.4792 307.432L-36.5454 304.938L-31.205 304.258L-46.2705 304.938L-52.0981 305.165L-57.9257 304.938L-63.7533 303.805L-69.3373 302L-72.0169 301.102L-69.3373 296.568L-65.9363 292.27L-64.7184 291.137L-63.0132 292.488L-60.8302 293.621L-58.16 294.075L-55.977 294.302L-53.541 294.075L-51.358 293.177L-49.175 292.261L-47.4698 290.692L-45.2868 288.652L-44.0688 285.949L-43.3474 284.816L-40.9114 285.269L-38.4754 285.949L-36.283 286.847L-34.1 288.416L-29.9776 291.817L-27.5416 295.67L-27.298 296.568H-17.3293L-12.2325 295.67L-7.36052 294.764L2.1023 291.817L6.72128 289.785L10.6001 287.3L18.1329 282.784L25.4221 277.814L32.2241 272.618L38.5389 266.515L44.1229 261.981L50.447 257.691L57.0054 253.855L63.5638 250.69L70.3564 248.877L77.4114 247.979H79.5944L88.3358 246.392L93.2077 249.33L98.7918 251.135L104.376 252.504L110.213 252.731L116.04 252.504L121.624 251.135L126.965 248.868L132.062 246.383L133.036 245.477L131.574 250.01L130.356 254.544L129.626 259.06V263.803L130.356 274.205V279.174L129.382 284.144L127.443 288.434L125.26 292.505L122.58 296.132L121.606 297.484L126.225 296.804L130.6 295.67L135.21 294.764L139.585 292.959L143.707 291.145L147.586 288.652L151.474 286.176L154.885 283.455L161.19 283.019L167.505 281.659L173.342 279.628L178.926 276.681L184.266 272.845L188.632 269.008L192.755 264.039L195.659 259.069L196.39 257.718L198.826 264.719L201.983 271.729L206.106 278.058L210.715 284.162L215.831 289.811L221.893 294.781L227.983 299.297L235.263 302.916L232.592 291.607L231.374 279.863L231.121 267.884L231.871 256.349L238.176 259.052L244.735 260.856L252.015 262.217L258.826 262.67L270.228 284.38L280.441 306.761L289.903 329.142L298.167 352.421L301.559 361.227L304.725 370.268L307.63 376.607L311.021 382.71L321.234 401.69L321.721 402.824L322.442 404.184L326.096 411.639L326.827 412.99L327.314 413.897L329.001 416.382L331.184 418.422L333.376 420.235L335.812 421.805L339.447 423.156L343.813 423.383L348.442 422.711L352.808 421.351L356.93 419.32L360.331 416.835L363.732 413.208L366.402 409.372L368.585 405.535L370.047 401.002L371.733 396.712L392.879 398.517L388.008 421.36L403.795 420.226L419.347 418.186L434.413 415.021L449.713 410.723L445.59 415.021L437.345 424.525L431.752 429.495L428.604 431.988L424.95 433.557L422.046 434.464L419.366 434.691H416.209L413.304 434.464L396.065 429.712L394.847 429.486L391.446 429.032L388.036 429.486H386.818L409.416 436.949L431.527 444.866L437.111 446.67L442.705 448.022L448.513 448.719L454.107 449.173L445.6 452.329L436.605 454.36L427.377 455.947L418.382 456.174L412.573 455.494L406.989 454.36L401.396 452.556L396.299 449.853L393.62 448.039L389.731 444.883L387.061 441.483L386.33 440.349L384.625 438.989L385.356 439.896L389.731 445.999L394.107 452.329L397.995 458.885L401.396 465.669L404.057 472.452L406.493 479.462L408.676 486.454L410.362 493.926L407.692 489.628L405.022 485.792L401.865 481.955L398.707 478.346L395.053 474.945L391.399 471.772L387.277 468.842L382.901 466.139L371.49 460.036L359.338 454.369L338.211 444.203L332.383 441.029L327.043 437.647L322.171 433.348L317.317 429.05L316.83 428.37L315.856 427.698L310.984 422.049L309.044 418.884L307.827 415.483L304.922 404.847L299.816 379.083L296.415 378.856L301.268 420.907L302.018 430.846V441.465L296.677 480.351L299.113 482.156L301.062 485.094L303.254 487.814L305.672 490.299L308.342 492.566L311.246 494.153L314.647 495.504L318.058 496.638L321.459 497.335H323.895L325.113 498.007L325.6 498.46H326.087L326.574 498.913H327.061L327.305 499.14L328.026 499.367H328.514L329.001 499.82H329.488L330.219 500.273H330.462L331.184 500.5H331.68L335.803 501.407L340.169 501.86L344.544 501.633L348.432 501.407L351.833 500.273L351.59 500.5L348.189 505.243L344.048 508.643L339.194 511.582L333.854 513.613L332.402 514.066L336.037 514.502L340.159 514.965L344.535 514.058L348.423 512.471L349.154 512.253L346.249 517.005L342.839 521.748L338.464 525.584L333.367 528.287H332.88L332.411 528.723L327.783 530.536L331.68 531.896L335.803 533.03H340.169L344.544 532.576L347.449 531.905L350.606 530.772L347.936 533.474L344.778 535.959L341.377 538.226L337.255 539.813L333.601 540.711L330.2 541.391H326.546L322.892 540.938L323.379 541.391L325.066 541.844L327.258 542.751L328.945 543.885L331.128 545.916H327.97L325.066 546.596L319.969 548.628L316.081 550.894L313.158 553.379L315.837 554.059L321.43 554.739L324.335 554.513L328.457 552.926L332.833 550.45L332.598 551.121L331.128 554.059L329.188 556.091L326.752 558.358L323.848 559.709L323.604 559.936H322.873L322.63 560.389L322.143 560.825H321.178L320.447 561.052H319.229L318.76 561.279H312.436L312.193 561.052H310.975L309.757 560.825H310.244L310.487 561.052H311.209L311.696 561.279H312.183L312.427 561.732H312.67L313.401 562.185H313.635L314.366 562.412L314.61 562.848H314.853L315.603 563.545L316.071 563.772H316.568V564.208L317.036 564.661L317.767 565.341H318.011L318.985 566.239V566.693L319.454 567.146L319.941 567.6L320.428 568.498V568.724L321.402 569.858L322.62 573.476L323.351 576.859L319.463 575.508H315.809L313.129 576.179L310.469 577.539L309.007 578.89L308.042 580.25L307.068 582.517V584.331L307.555 586.816L308.276 589.083L310.946 592.021L310.225 592.474H309.738L309.007 592.701H307.789L307.058 593.154H302.205L298.083 592.021L297.595 591.567H296.865L296.621 591.341H296.377L295.647 590.905H295.403L294.672 590.225H294.204L293.473 589.545H292.742L291.29 587.731H291.046L290.072 586.833L290.803 593.834L289.828 600.853L287.889 607.627L284.479 614.184L283.757 615.317L284.479 615.544H284.722L287.158 616.904L289.341 619.154L291.29 621.185L292.742 623.679V624.115L293.717 627.968V631.587L293.229 633.836L292.255 635.876L290.803 638.143L288.863 639.957L288.133 637.463L286.915 635.432L284.235 633.165L280.356 631.813H278.173L275.737 632.04L273.798 632.938L272.111 634.289L270.144 636.329L269.179 639.494L269.666 641.988L270.134 644.237L271.118 645.598L268.682 646.278H264.073L261.402 645.824H261.159L260.915 645.598L258.732 644.237L256.783 641.761L256.54 639.948L256.296 633.845V633.627L257.027 628.657L258.732 623.687L261.402 613.068L263.585 602.213L264.316 592.492L263.585 582.317V582.544L262.611 590.007L260.925 597.47L254.113 616.913L252.174 623.234L250.956 631.151V631.604L251.443 637.472V638.832L252.417 641.779L248.763 643.13L246.58 643.357H244.641L241.24 642.677L238.56 641.779L236.125 639.965L233.942 637.925L236.612 635.894L238.551 633.627L239.526 631.142L239.76 629.11L239.038 626.844L238.064 624.359L236.378 622.318L234.429 620.967L232.246 619.834L230.063 619.38L227.627 619.154L225.191 619.834L222.755 620.967H222.268L222.024 621.185L222.268 620.514V618.709L222.755 618.029V617.802L223.973 614.184L225.678 611.01L226.146 610.339L231.018 604.689L231.768 604.236L232.011 604.009L243.667 595.421L244.154 595.194L246.59 593.163L248.773 590.678L250.712 587.513L251.443 583.886V582.753L251.199 578.219L250.234 581.837L248.773 585.011V585.238L245.868 589.074L242.214 593.146L237.595 597.444L237.361 597.671L236.63 597.897L236.387 598.351L233.951 599.702L231.281 600.835L227.88 601.733L225.2 600.382L223.017 597.897L222.043 596.302L221.799 594.035L222.286 592.003L226.165 591.55L229.576 590.199L231.281 589.065L232.499 587.705L233.96 586.136L234.682 584.331L235.169 582.291V579.806L234.682 577.539L233.96 575.508L232.255 573.476L236.874 571.889L241.249 571.663H245.859L250.712 572.343L251.199 572.569H251.443L252.905 573.476H253.148L253.617 573.703H254.348L254.591 573.921L256.783 568.716L259.941 563.746L264.794 553.562L268.682 543.17L268.926 542.272V541.81L269.169 541.356L269.657 536.84L268.682 532.097V531.417L268.776 531.46Z" fill="white"/>
<path d="M390.228 183.399L398.248 175.936L406.999 169.153L410.634 172.78L421.081 186.791L425.934 194.245L430.309 201.935L434.197 210.07L437.608 218.213L440.756 226.339L445.609 243.079L447.558 251.885L455.091 247.813L461.883 243.07L468.442 237.865L474.269 231.997L475 235.154V238.318L474.269 244.204L473.295 247.36L472.077 250.298L470.625 253.001L468.442 255.486L466.006 257.526L463.326 259.331L458.229 262.949L455.559 264.98L453.854 267.919L452.636 270.639L451.905 273.804L457.733 271.999L463.073 268.834L467.692 265.434L472.058 260.682L472.789 267.012L471.824 273.795L470.606 276.96L469.388 279.663L467.439 282.61L465.247 285.103L462.811 287.135L459.653 288.94L453.826 291.642L447.755 294.127L441.918 297.745L448.476 297.31L455.034 296.612L461.106 294.807L467.42 292.322L467.177 295.261L466.69 298.426L464.272 303.631L462.801 306.107L460.853 308.592L458.679 310.623L456.243 312.219L453.339 313.57L450.659 314.25L444.822 316.055L439.247 318.086L436.568 320.126L434.881 322.393L439.978 322.611L445.075 322.393L450.415 321.26L455.287 319.909V320.135L453.348 324.887L450.668 329.403L447.014 333.24L442.648 336.169L437.308 337.529L432.202 338.889L429.766 340.249L428.079 342.516L426.374 344.548L425.887 347.251L430.262 347.024L434.15 345.89L438.273 344.086L441.908 342.054L440.456 347.024L437.551 351.54L434.141 355.394L431.949 357.199L429.766 358.559L425.4 362.168L420.528 365.333L415.422 367.827L409.838 369.396L406.202 371.21L402.061 372.561L394.051 374.13L386.031 374.811L377.533 374.13L373.645 373.695L369.522 372.561L365.634 371.21L361.755 369.396L356.162 367.827L351.309 365.333L346.212 362.168L341.583 358.559L339.4 357.199L337.217 355.394L333.816 351.54L331.137 347.024L329.45 342.054L333.339 344.086L337.227 345.89L341.593 347.024L345.978 347.251L345.003 344.548L343.532 342.516L341.593 340.249L339.157 338.889L329.198 336.169L326.762 334.6L324.579 333.248L320.925 329.412L318.02 324.896L316.071 320.144V319.917L321.178 321.269L326.518 322.402L331.624 322.62L336.721 322.402L334.782 320.135L332.346 318.095L326.752 316.064L321.168 314.259L318.011 313.579L315.341 312.227L312.661 310.632L310.478 308.6L307.077 303.631L304.894 298.426L304.407 295.261L303.92 292.322L310.234 294.807L316.559 296.612L322.864 297.31L329.422 297.745L323.838 294.127L317.767 291.642L311.677 288.94L309.007 287.135L306.103 285.103L303.92 282.61L302.233 279.663L301.015 276.96L300.041 273.795L298.823 267.012L299.066 263.847L299.797 260.682L303.685 265.434L308.295 268.834L313.635 271.999L319.472 273.804L319.004 270.639L317.786 267.919L315.837 264.98L313.401 262.949L308.061 259.331L305.625 257.526L303.208 255.486L301.015 253.001L299.31 250.298L298.092 247.36L297.108 244.204L296.64 238.318L296.883 235.154L297.614 231.997L303.442 237.865L309.757 243.07L316.802 247.813L324.335 251.885L326.021 243.079L328.204 234.709L331.109 226.339L333.788 218.213L341.321 201.935L345.687 194.245L350.306 186.791L355.647 179.781L361.24 172.78L372.652 159.667L384.794 146.554L396.224 133.667L401.321 124.844L405.209 115.34L408.367 105.628L409.341 100.658L409.097 95.4616L408.367 92.5234L407.149 90.0386L405.2 87.545L402.764 85.7402L398.154 83.7088L393.048 82.3486L394.023 79.1924L396.215 76.0275L399.119 73.9873L402.52 72.8539L406.174 72.4005L409.81 73.0806L412.967 74.8854L415.403 77.8323L416.134 63.1412L415.89 48.8948L414.916 33.9683L412.976 19.7393L418.073 24.2556L422.458 29.6786L426.093 35.3458L428.529 41.8849L430.216 48.2234L430.459 54.9979L430.216 61.5544L428.529 68.1109L431.921 62.6878L434.357 56.5847L435.322 50.2636V43.681L438.488 46.1658L441.393 48.8861L443.829 52.051L445.281 55.2159L446.986 59.0521L447.473 62.9058V66.7421L447.23 70.5783L432.164 94.3195L437.523 90.4832L442.133 85.7315L446.499 80.7618L449.909 75.33L451.849 80.2997L452.814 85.4961V90.7012L452.092 95.8976L434.104 112.847L452.092 103.361L452.58 109.011L451.605 114.434L449.413 119.185L447.726 121.67L446.021 123.702L443.117 123.475H440.447L434.863 124.826L431.939 125.96L429.503 127.32L427.32 128.671L425.137 130.938L429.26 129.805H433.635L437.289 130.938L440.943 132.525L444.101 134.774L447.005 137.495L448.944 141.104L450.406 144.941L450.893 148.559L450.65 152.395L449.432 156.231L447.492 159.178L445.3 162.579L442.639 165.281L439.238 167.548L435.34 168.9L435.837 165.517L435.34 162.579L433.888 159.64L431.939 156.92L429.269 155.107L426.112 153.973L422.964 153.747L419.553 153.973L413.239 157.591L407.177 161.428L401.34 165.499L395.25 170.242L390.153 174.541L380.194 185.16L375.584 190.827L371.462 196.233L367.339 202.572L363.685 208.675L360.519 215.004L357.37 221.544L354.934 228.344L352.742 235.119L351.056 242.129L349.35 249.138L348.385 256.148L347.411 270.159V277.169L348.142 284.632L348.863 291.634L350.081 298.643L351.543 305.88L355.909 319.22L358.579 325.785L361.746 332.559L365.147 338.445L369.026 344.766L372.914 350.869L377.289 338.227L380.69 325.584L383.126 312.471L384.578 299.132L387.979 305.008L390.65 311.111L393.086 317.441L395.034 323.98L396.496 330.319L397.948 337.093L398.435 343.876V350.878L402.558 344.774L406.455 338.453L409.847 332.568L415.431 319.228L418.101 312.454L419.788 305.889L421.502 298.652L422.72 291.642L423.685 284.641L423.929 277.178V270.168L423.685 263.158L422.964 256.157L421.989 249.147L420.528 242.137L418.579 235.127L416.396 228.353L413.96 221.552L410.803 215.013L407.645 208.683L403.991 202.58L400.356 196.242L395.981 190.836L390.153 183.373L390.228 183.399ZM357.192 373.599L363.994 375.307L371.284 376.563L378.329 377.173L385.853 377.487L393.142 377.173L400.431 376.24L407.477 374.994L414.279 373.276L413.304 376.711L411.599 379.989L408.695 382.64L405.041 384.977L400.656 385.918L396.046 386.703L391.437 387.174H386.818L381.964 386.999L377.345 386.389L372.97 385.918L368.36 384.977L363.489 383.582L361.306 382.335L359.357 380.94L358.139 379.222L357.174 377.191L356.93 375.639L357.174 373.607L357.192 373.599Z" fill="white"/>
<path d="M363.029 160.8L351.852 153.999L348.451 153.773L345.528 153.999L342.37 155.133L339.935 156.946L337.751 159.667L336.29 162.605L335.821 165.543L336.056 168.926L332.42 167.574L329.01 165.308L326.106 162.605L323.923 159.204L322.217 156.258L321.252 152.421L321.009 148.585L321.252 144.967L322.47 141.13L324.663 137.521L327.333 134.801L330.49 132.551L334.144 130.964L338.267 129.831H342.389L346.287 130.964L344.085 128.698L341.902 127.346L339.466 125.986L336.796 124.853L334.126 124.181L331.202 123.501H328.298L325.628 123.728L323.688 121.696L322.227 119.212L320.044 114.46L319.079 109.037L319.313 103.387L337.302 112.873L319.313 95.9237L318.845 90.7274V85.5223L319.566 80.3259L321.515 75.3562L325.15 80.788L329.272 85.7577L334.144 90.5094L339.485 94.3456L324.429 70.6045L323.941 66.7682V62.932L324.916 59.0783L326.134 55.242L328.073 52.0771L330.266 48.9122L332.936 46.192L336.093 43.7071V50.2723L337.311 56.5934L339.494 62.6966L343.382 68.1196L341.443 61.5631L341.199 55.0066L341.443 48.2322L342.895 41.8936L345.8 35.3546L349.21 29.6874L353.576 24.2643L358.429 19.748L356.743 33.977L355.768 48.9035L355.3 63.1499L356.021 77.841L358.457 74.8941L361.868 73.0893L365.269 72.4093L369.147 72.8626L372.548 73.9961L375.228 76.0363L377.411 79.2012L378.629 82.3574L373.523 83.7175L368.651 85.749L366.468 87.5537L363.095 92.5234L362.608 95.4616L362.364 100.658L363.095 105.628L366.252 115.34L370.375 124.844L375.247 133.667L381.805 140.668L378.404 143.842L370.628 151.977L363.104 160.8H363.029ZM274.604 160.12L269.01 157.626L263.67 154.461L259.051 150.625L255.163 146.091L258.817 139.988L262.208 133.667L264.878 127.337L267.783 120.781L269.975 113.998L271.437 107.223V100.205L270.453 96.8043L269.235 93.1948L271.905 93.4215H274.341L276.777 93.1948L279.213 92.0613L283.336 98.1645L288.676 103.134L291.346 105.174L294.504 106.988L297.661 108.339L301.062 109.699L300.575 111.966L300.088 113.536L297.652 117.163L295.946 118.296L294.26 119.203L292.068 119.874L290.128 120.781H287.945L285.762 120.328L282.108 119.194L278.707 116.927L275.803 113.527L275.334 114.878V116.919L275.578 118.279L276.046 119.639L279.7 123.248L285.79 127.991L288.695 130.938L291.131 133.876L293.314 137.948L294.532 142.238L295.019 146.309V150.608L294.532 158.734L293.801 162.587L292.583 166.424L292.33 167.104L292.086 166.424L290.147 161.227L288.695 156.258L286.746 151.061L284.797 146.091L282.614 140.66L279.944 136.143L276.543 131.854L274.36 130.023L272.177 128.671L272.411 132.298L273.161 135.455L276.065 141.784L279.953 147.67L283.354 153.773L284.572 156.938L285.556 160.111L286.512 167.112L286.043 173.442L284.572 180.225V180.452L281.171 177.052L277.049 173.887L273.17 172.082L268.298 170.269L271.221 172.535L273.404 174.576L277.058 180.225L280.216 186.102L283.12 192.205L286.512 198.081L290.409 203.513L295.028 208.256L300.369 212.546L295.75 213.243H290.887L286.034 212.546L281.406 211.412L276.796 209.843L272.421 207.576L268.767 205.091L264.878 201.926L261.487 198.526L258.817 194.908L253.701 186.773L246.421 175.247L243.264 171.62L243.02 170.94L244.238 175.247L245.69 179.763L250.066 188.351L255.163 196.259L259.782 204.856L263.67 213.226L265.356 217.742L266.574 222.712L267.061 227.246L266.808 232.215L266.34 236.723L264.635 241.475L259.294 236.723L254.422 231.527L249.813 225.877L245.69 220L242.055 213.671L238.645 207.341L233.548 193.783L235.234 203.504L237.67 212.537L241.324 221.343L245.934 229.486L251.518 237.176L258.573 244.186L265.853 250.289L274.36 255.041L269.02 256.628L263.436 256.854H257.852L252.511 256.628L246.927 255.494L241.83 254.143L236.724 251.876L231.871 249.383L232.339 245.32L232.105 241.03L231.374 237.194L229.913 233.357L227.73 229.521L225.05 226.348L221.893 223.871L218.014 221.378L221.415 225.912L224.319 230.445L226.259 235.415L227.477 241.082L226.259 253.053L225.537 265.033L226.259 277.021L227.477 289.001L221.162 285.164L215.325 280.631L210.706 274.763L206.584 268.433L203.913 261.876L202.208 254.405L201.965 247.403L202.452 240.167L207.549 240.62H212.186L216.796 240.167L221.415 238.597L218.735 236.566L216.299 234.299L211.933 228.876L210.228 225.702L209.01 222.537L208.523 219.373L207.792 215.763L212.898 209.878L217.517 203.557L221.406 197.218L225.284 189.982L228.451 182.972L231.112 175.962L233.304 168.952L235.244 161.497L239.853 163.764L244.725 165.124L249.822 166.023H255.163L260.035 165.587L265.375 164.226L269.994 162.657L274.613 160.172L274.604 160.12Z" fill="white"/>
<path d="M275.578 53.3588L277.517 52.9054L281.124 52.2253L284.535 51.772L288.142 52.2253L289.36 55.8349L290.297 59.2003L290.784 63.0366L290.297 66.8728L288.667 73.9176L284.778 80.2474L282.342 83.1856L279.878 85.4525L276.758 87.4578L275.54 87.9112V82.6799H275.775L276.993 81.3285L278.679 79.9684L279.616 79.0965H280.103L280.834 78.6432L281.302 78.2072V76.8558L281.059 76.1583L280.122 75.7049H279.654L279.166 76.1583L277.948 76.3937L277.011 76.8471L275.606 76.4112V64.6757L276.543 62.6443L278.005 61.0574L281.153 59.2527H282.089L283.026 58.5726L283.514 56.3057L283.026 55.8523L282.089 55.4164L280.872 54.963L279.654 55.4164L279.166 55.8523L276.983 56.3057L275.531 57.1776L275.578 53.3588ZM211.437 50.8303L267.558 51.057L262.461 62.3914L264.878 59.6886L267.783 57.4217L270.996 55.3554L273.901 53.7686L275.606 53.3326V57.1689L275.362 57.3956L273.414 58.7906L272.196 60.6041L271.465 62.6355L271.221 63.0889L270.491 66.0184L270.247 68.5468L267.811 78.2683L268.298 80.7967L269.235 82.6015L270.978 83.9703L272.439 84.1883L273.891 83.9703L275.597 82.8369V88.0681L273.404 88.94L269.029 89.6114L264.663 89.158L261.056 87.8066L257.168 85.5397L260.325 89.6026L262.761 93.4563L264.466 97.9726L265.403 102.716L265.647 107.014L265.403 111.984L263.66 116.657L261.974 120.72L259.257 113.745L255.65 107.406L251.021 101.765L245.4 97.2316L248.557 102.201L251.274 107.432L253.223 112.864L254.675 118.741L255.406 124.39V130.494L254.469 135.917L253.251 141.497L252.033 137.19L249.316 133.127L246.412 129.29L242.289 126.343L242.533 132.011L243.751 137.198L245.437 142.168L248.155 146.92L251.303 151.436L255.425 155.272L259.8 158.437L264.419 160.966L259.763 162.326L254.657 162.561L249.803 162.326L244.669 160.931L240.294 158.664L236.406 155.961L233.005 152.334L230.1 148.498L231.037 152.334L231.281 156.641L231.037 160.931L230.55 164.994L229.088 169.301L227.636 173.364L225.697 176.72L223.261 179.894L211.362 166.328V137.87L215.25 140.59L222.277 144.426V140.633L222.033 137.015L221.312 133.397L220.094 130.04H222.811L227.683 129.36L229.866 128.488L232.302 128.035L234.485 126.901L238.092 124.199L238.579 123.065L238.092 122.193L237.605 121.74L236.668 121.287L234.719 121.74L233.033 120.868L231.346 120.188L230.128 118.383L229.641 115.018L229.885 113.213V109.324L229.641 105.488L228.423 101.879L226.765 98.7922L224.329 95.854L222.867 94.7205L220.928 94.0405L218.979 93.8225H216.796L218.979 95.3919L220.928 97.6588L222.146 100.187L223.083 102.716L221.396 101.844L219.935 101.617H218.586L216.899 102.288L220.056 104.817L222.961 107.537L224.413 111.155L225.144 114.992L224.207 112.463L221.546 111.112L220.328 110.658H219.11L216.674 111.53L219.391 115.593L222.998 119.22L226.615 122.158L230.981 125.097L226.615 125.533L222.474 125.097L218.586 123.676L214.707 121.871L216.646 125.48L217.583 129.334V132.691L216.852 136.762L215.166 133.824L212.973 131.793L211.512 130.433V74.8069H211.755L213.414 73.935L215.363 72.8016L217.799 70.0814L218.735 68.512L218.979 66.4718L223.354 67.3437L232.068 68.015L236.434 67.5616L236.19 65.5302L227.964 64.6583L219.944 62.3914L212.449 59.2265L211.512 58.7731V50.8303H211.437ZM211.437 169.057V204.804L214.594 200.505L217.499 194.629L218.717 191.682L218.96 188.325L218.717 184.968L217.78 181.795L215.344 176.145L212.186 170.914L211.456 169.1L211.437 169.057ZM275.569 64.667V64.8937L275.334 67.396L274.604 69.4274L273.873 71.9559V72.8278L273.592 73.874L273.835 75.0074L274.566 76.1409L275.503 76.3763L275.569 64.667ZM150.697 76.1758V75.3039L152.664 72.7754L154.351 71.1886L157.068 69.3839L159.504 67.9888L175.291 61.659L180.116 58.7208L184.491 55.3554L186.431 53.3239L187.93 50.8303H211.484V58.808L205.656 54.9717L201.29 58.59L196.887 61.7288L192.015 63.7603L186.693 65.565V67.5965H191.068L195.434 66.4631L197.627 69.8285L200.531 72.3569L203.951 74.3623L205.637 74.8156L207.82 75.0423H209.76L211.474 74.8156V130.424L210.256 129.29L207.82 127.477L204.672 132.011L201.065 135.847L196.446 139.212L193.523 140.084L191.106 140.764L193.045 138.061L194.263 134.696L194.994 131.758V128.166L190.591 131.793L185.494 134.321L180.153 135.891L174.532 137.024L176.715 135.21L178.401 133.179L179.338 130.651V127.948L176.181 130.886L172.293 133.414L168.404 134.775L164.038 135.908L166.231 133.38L168.17 130.851L171.075 125.428L172.012 121.592L172.742 120.458L173.679 119.325L176.115 118.645H178.298L180.491 119.098L184.379 119.97L188.745 120.423L190.937 119.97L193.12 119.299L195.069 118.165L196.521 116.805L198.957 113.196L199.829 110.99L200.072 108.461L199.829 103.928L199.098 99.1845L198.854 95.1216L198.62 92.8547L197.683 90.8233L196.746 89.4631L195.191 88.3123L193.476 87.6322L192.024 87.4055L186.196 86.9521L184.978 87.4055L181.09 87.8589L174.316 90.1868L170.709 90.8669L167.299 91.3202H163.411L159.804 90.4484L156.318 89.0534L154.847 87.8938L153.161 86.5772L151.474 83.2118L150.987 81.407L154.145 79.1401L157.752 77.7887L158.97 76.9168V75.3475L158.483 74.4756H157.03L153.873 75.1557L150.716 76.2891L150.697 76.1758ZM211.437 166.371V137.887L208.72 135.856L207.277 138.122L205.094 139.709L200.719 142.648L198.564 144.478L196.615 146.048L195.678 148.576L196.165 151.515L192.755 149.71L189.148 147.181L186.431 144.478L184.491 140.851L180.875 143.572L177.268 146.928L170.953 153.468L165.537 159.571L162.633 162.273L159.476 164.802L155.353 166.807L151.465 168.621L147.09 169.754H142.714L140.278 168.821L138.095 167.949L136.147 166.363L134.685 164.793L132.811 160.913L131.799 157.042L128.398 158.176L125.494 159.989L123.058 162.518L121.278 165.063L118.355 170.949L117.624 173.651L118.111 176.816L119.573 179.755L121.765 181.795L127.105 184.323L132.933 186.128L138.77 187L133.148 188.133L127.527 189.938L122.43 192.466L117.09 195.169L112.471 198.256L108.105 202.092L100.085 210.235L92.5894 219.477L85.0941 227.882L80.7281 231.718L75.8561 235.084L70.75 238.022L65.1285 239.827H64.8849L69.0073 241.414L73.3733 242.547L77.2709 243H81.7025L86.0685 242.32L90.4345 241.187L94.051 239.373L97.9392 237.342L114.185 225.362L130.431 213.156L123.723 222.224L119.835 226.522L115.712 230.594L111.346 234.203L106.474 237.569L101.631 240.899L96.7774 243.602L101.631 244.962L106.25 245.642L111.356 246.096L115.965 245.642L120.819 244.962L125.438 243.602L130.31 241.797L134.188 239.269L138.086 236.113L141.487 232.747L147.549 225.772L154.107 218.536L158.23 215.833L162.596 213.304L160.441 218.387L157.283 222.904L149.994 230.986L143.173 239.147L140.456 243.663L138.273 248.894L137.055 254.326V259.557L137.299 270.177V275.408L136.362 280.596L135.875 283.534L134.938 286.062L133.251 288.538L131.752 290.596V290.823L135.875 288.791L140.25 286.76L143.857 284.231L147.474 281.511L154.276 275.181L159.897 267.945L164.769 260.037L168.17 251.449L170.325 242.643L170.812 233.602L171.749 239.478L171.983 245.145L171.749 251.248L171.018 256.68L169.557 262.321L167.374 267.744L164.657 272.975L161.499 277.945L168.292 275.417L174.382 272.252L180.453 268.416L185.559 263.882L189.925 258.232L193.814 252.129L196.249 245.808L198.189 239.251L195.472 238.118L193.195 236.723L189.101 233.044L185.728 229.207L182.805 224.691L179.9 220.393L177.464 215.876L175.281 210.907L174.063 205.675L176.78 207.036L179.497 209.067L181.681 211.334L183.367 214.037L185.803 219.46L188.96 224.691L190.909 227.219L193.092 229.251L197.945 232.869L203.567 235.572L209.629 237.377L206.724 231.274L204.288 224.935L202.293 219.094L200.831 212.772L199.613 206.887L198.395 200.557L195.678 194.454L193.973 191.752L192.033 189.223H191.79L196.887 193.739L201.271 198.971L204.672 205.074L207.389 211.412L207.624 210.959L211.025 205.728L211.512 204.856V169.109L211.025 167.522L210.088 164.584L211.437 166.371ZM207.549 61.0313L210.706 62.3827L212.421 62.6094L214.107 63.7428L215.325 64.8763L215.578 66.4456L215.091 68.7125L213.629 70.0726L211.943 71.2061L209.741 71.4328L207.802 71.8861L205.619 71.4328L203.932 70.9707L202.227 69.8372L201.759 68.9305L200.541 67.3611L199.81 65.5476L199.566 63.5161L199.81 62.3827L200.541 61.2492L202.227 60.1158H202.958V65.9835L203.445 68.015L205.384 68.9218H210.725L211.699 68.4684L212.196 67.3349L211.952 66.2015L210.978 65.5214L207.324 65.0855L207.567 61.0138L207.549 61.0313ZM269.741 46.5756H191.274L189.822 35.7207L187.639 25.0839L184.238 14.6824L179.619 4.743L182.055 5.19638L184.004 5.86772L185.709 7.22785L187.396 9.25932L188.614 10.8461L189.101 13.113L189.588 14.9178L189.101 17.1847L190.806 16.2866L192.258 15.5891L194.198 15.3712H196.146L197.852 15.8245L199.538 16.7226L201 18.0827L201.965 19.6521L202.452 21.2214V23.2616L202.208 25.0664L201.74 26.8799L200.765 28.2313L197.608 30.4982L195.659 30.7249H198.339L201.009 29.8094L203.445 29.3735L205.628 27.5513L206.602 28.9114L208.055 29.8094L209.741 30.7249L211.69 30.9516H213.151L215.1 30.7249L216.552 29.5914L217.77 28.458L216.309 28.9114L213.151 28.2313L211.69 27.5513L210.715 26.4178L209.741 25.0577L209.02 22.1195L209.741 19.1813L211.69 16.9318L214.613 15.563H216.299L217.761 15.7984L216.299 13.5315L215.578 10.8287V8.37L216.543 5.66719L218.005 3.18235L220.188 1.35141L222.858 0.453375L225.762 0L228.685 0.453375L231.103 1.35141L233.295 3.18235L234.747 5.66719L235.722 8.37V10.8548L235.234 13.5577L233.548 15.8245L235.234 15.5891H236.94L238.626 15.8245L240.078 16.7226L241.296 17.6293L242.261 18.7628L242.992 20.1142L243.236 21.9277V23.2791L242.992 25.0839L242.261 26.444L239.825 28.4755L238.139 29.3822H235.234L236.696 30.5156L238.879 30.969L240.818 31.4224H245.203L246.89 30.7423L250.768 28.4755L253.204 30.969L256.362 32.7738L260.016 33.4539L261.965 33.2272L263.417 32.7738L261.477 32.3204L260.016 31.8845L258.564 30.5244L257.102 28.9375L256.371 27.124L255.884 25.5547L256.371 23.5232L256.615 21.7184L257.589 20.1316L259.041 18.7802L260.747 17.6468L262.452 16.9754H266.331L268.017 17.6468L269.722 18.7802V15.842L270.191 13.5751L271.409 11.0903L273.592 9.27675L275.803 7.23657L278.707 6.32982L281.377 5.87644L284.282 6.78319L280.89 14.0198L277.77 21.7097L274.866 29.6089L272.683 37.2988H234.532V42.0418H271.465L269.76 46.5756H269.741ZM193.448 113.03L191.996 114.843L189.56 116.195L186.656 116.648L183.002 110.318L188.342 111.452L193.439 113.039L193.448 113.03Z" fill="white"/>
<path d="M181.549 115.297L179.366 114.843L176.696 114.39L177.661 108.505L181.549 115.306V115.297ZM181.596 97.249L181.334 102.916L179.216 98.3824L181.596 97.249ZM170.634 115.297L161.153 116.195L151.934 116.875L142.696 117.328L132.98 116.875H126.421L119.863 115.741L116.959 114.843L114.054 113.257L112.115 111.896L110.653 110.327L109.192 106.927L107.974 103.989V97.2054L108.47 93.8051L109.688 90.4048L111.871 87.7019L114.307 85.2084L114.776 88.382L115.263 91.5469L116.481 94.7118L118.167 97.6413L119.854 100.144L122.533 102.175L124.969 103.98L127.639 105.549L133.954 107.816L140.513 108.95H153.142L173.792 109.403L172.817 114.373H171.599L170.634 115.279V115.297ZM113.548 191.935L106.259 196.904L99.7006 202.545L93.873 208.875L88.5326 215.432L85.1316 220.175L81.4963 224.246L77.1116 227.873L72.2584 231.03L67.1616 233.514L61.8212 235.101L56.2372 236.671L50.4096 237.351L55.5064 241.187L61.0904 243.89L55.9936 247.29L51.384 245.477L46.7556 245.041L42.146 245.477L37.78 247.29L40.6844 242.32L44.8068 238.048L49.4258 234.648L54.7662 232.163H51.6088L48.2078 231.71L45.0504 231.03L42.146 229.896L38.9886 228.536L36.0842 226.731L33.6482 224.926L31.4652 222.424L33.414 223.558L35.1191 224.229H39.4852L41.6682 224.002L43.6076 223.331L45.5564 221.744L47.0086 220.837L43.8512 221.064L37.7893 220.384L34.6319 219.486L31.7088 218.352L29.2728 216.548L26.8368 214.516L24.6444 212.249L27.0804 213.156L29.2634 213.836H31.6994L34.379 213.383L36.815 212.703L38.998 211.351L40.7031 209.765L42.3896 207.724L38.9886 208.404H31.4558L28.0548 208.178L24.4009 207.044L21.0092 205.911L17.8425 204.559L14.6851 202.519L16.8681 202.746H19.0604L21.2528 202.519L23.4358 201.848L25.6188 200.714L27.3053 199.581L30.4627 196.407L23.1829 197.087L15.6501 198.901L8.36089 201.386L1.55891 204.995V201.839L2.2897 198.901L3.50768 196.181L5.69069 193.687L7.8737 191.664L10.5439 190.531L13.7013 189.397H16.8587L12.0055 187.584L7.15228 185.317L2.52393 182.379L-1.3549 179.205H-1.1113L2.0461 179.885H4.96927L7.8737 179.205L10.3097 177.854L12.4927 176.049L14.4321 174.009L15.6501 171.306L16.1185 168.603L15.8843 165.883L14.6663 162.945L11.5089 158.428L8.10793 154.13L6.42149 152.09L4.96927 149.605L4.72567 152.77L3.25471 155.935L1.07171 158.655L-1.83272 160.46L-5.23371 161.593L-8.62534 162.029L-12.0357 160.896L-15.1931 159.536L-13.2537 158.184L-10.8177 155.246L-9.84333 153.433L-9.59973 151.401V149.352L-9.84333 147.321L-10.3305 145.751L-11.7827 143.938L-13.0007 142.587L-14.6872 141L-16.636 140.546L-18.5754 140.11L-20.7584 139.657L-22.4448 140.11L-24.3936 140.782L-24.6278 138.297L-24.3936 135.812L-23.4192 133.327L-22.2012 131.287L-20.7396 129.256L-18.8002 127.904L-16.6172 126.309L-14.4248 125.411L-20.7396 114.791L-24.1406 110.257L-26.3236 108.444L-28.7596 106.874L-31.1956 105.968L-33.6316 105.514L-38.7284 104.163L-40.6771 103.03L-42.1387 101.678L-44.5747 98.0598L-47.0107 91.2766V90.8233L-44.8277 92.1834L-42.3917 92.8547L-39.9557 93.3081L-37.5197 92.8547L-35.3367 92.1834L-33.1444 90.8233L-31.4579 89.0185L-30.2399 86.987L-29.2655 84.4934V82.0086L-29.7527 79.9771L-30.7178 77.4836L-32.1793 75.6788L-34.1188 73.874L-36.3018 72.7406L-38.7377 72.3046L-34.6153 70.9358L-30.2493 69.8023H-27.8133L-25.3773 70.4737L-23.1944 71.1712L-21.2549 72.5226L-17.8539 75.2254L-15.1837 78.8437L-10.0776 85.8536L-5.22435 93.3081L0.846848 99.6466L3.77003 102.812L11.2934 107.781L14.9474 109.813L11.0592 105.976L6.93679 101.46L0.378395 91.7387L-5.4492 83.5954L-8.59724 79.5325L-12.0076 75.6962L-15.165 73.2114L-18.566 71.1799L-21.967 68.6863L-24.6278 65.9835L-25.8458 63.7166L-26.5766 61.2318V58.747L-25.8458 56.7068L-22.9226 49.4702L-20.2524 52.4084L-17.348 54.6753L-15.4086 55.3466L-13.2256 55.8H-9.57162L-7.38862 54.8933L-5.70217 54.2132L-2.77901 51.7371L-0.595993 48.5722L0.369026 44.7359L4.26659 46.096L7.90181 48.3629L9.36339 49.9323L10.5814 51.7458L11.5558 53.5506L12.2866 55.8175L12.7738 59.6711V71.8774L13.2609 75.7137L13.9824 79.5499L16.6526 87.4578L20.3065 94.6944L25.4034 101.024V100.571L23.2203 95.8191L21.7588 90.396L20.3065 84.5196L19.3322 78.6432L18.1142 71.8687L17.8706 68.6951V65.0855L18.1142 63.4987L18.845 62.1473L19.8193 61.2405L21.0373 60.5605H22.2553L23.4733 61.0138L23.7169 63.9521L24.9349 67.5616L27.1273 70.0552L30.2753 71.8687L33.6763 72.54L37.0867 72.3221L40.4877 70.9532L42.9236 68.4684L45.1066 70.9532L46.7931 73.9002L47.2896 77.5097L46.7931 79.5499L46.0717 81.3547L41.6963 86.3244L39.2603 88.8092L37.3209 91.512L36.1029 94.6769L35.1379 98.0773L34.8943 104.634L35.6157 111.408L35.8593 117.973L37.3209 122.943L41.1997 129.273L43.3921 132.211L45.8281 135.149L51.1685 140.572L56.9961 144.644L69.1385 153.45L80.803 162.491L91.971 172.213L102.905 181.926L113.586 191.882L113.548 191.935ZM75.65 537.633L72.4926 533.57L71.5182 530.623L70.7968 528.357V525.418L71.2653 524.285L71.5089 522.933L72.2397 521.8L74.6756 519.995L75.8936 519.768H77.833L79.2946 519.995L80.7562 521.129L81.9742 522.262L82.9486 523.396V524.756L82.705 525.427L81.7306 526.334L81.2621 527.467L80.2877 528.374L79.0697 530.405L77.1022 533.806L75.65 537.642V537.633ZM37.7612 51.3883L38.9792 53.8819L39.9536 56.5847V59.7496L39.4664 62.6966L38.492 65.6348L38.0048 66.7682L37.0398 67.675L36.0654 67.9017L34.8474 68.1283H33.6294L31.4464 67.675L29.2634 66.1056L28.7762 65.1988L28.289 64.3008L28.0454 62.9407V61.8072L29.507 60.2204L30.472 59.7671L31.4464 59.087L35.1004 55.4774L37.7706 51.4058L37.7612 51.3883ZM17.1023 441.335L19.7819 442.468L22.2178 443.828L24.4009 445.18L26.5932 447.211L27.0804 447.909L27.8018 449.042L28.7762 449.722L29.2634 450.855L29.9942 452.887L29.0198 455.154L27.0804 456.723L25.3752 457.63L22.705 457.857L20.522 457.159L19.7912 456.723L19.0604 456.043L18.339 455.816L17.8425 455.145V446.313L17.1117 441.343L17.1023 441.335ZM12.2491 348.872L12.4927 346.605L13.2235 344.801L14.6757 343.894L16.6151 342.996H18.8075L20.5127 343.894L21.7307 345.254L22.705 347.059L23.1922 350.895L22.2178 354.749L20.2784 358.149L17.1117 361.087L15.4252 354.757L12.2678 348.872H12.2491ZM-3.30367 548.706L-4.52167 545.759L-5.49605 542.594L-5.73965 538.985L-5.49605 536.046L-5.25246 534.242L-4.76526 532.655L-3.54727 529.255L-1.86082 526.325L-0.174385 525.872L1.5308 525.418H3.72318L5.66258 526.325L7.12417 528.357L7.8456 530.388V531.748L7.61137 533.108L6.88058 534.242L5.90618 535.14L4.68819 536.273L2.25222 537.625L1.27783 538.758L-0.183754 541.025L-1.8702 543.292L-2.83522 545.777L-3.32241 548.724L-3.30367 548.706ZM-16.8889 31.2567L-13.2537 33.0702L-10.3305 35.3371L-7.89455 38.9467L-6.43296 42.565L-6.18937 43.9164V45.0498L-5.72092 46.4012L-6.18937 47.5346L-6.43296 48.886L-7.40736 50.0195L-8.62534 50.4729L-11.0613 51.3709L-13.4973 50.4729L-14.4623 50.0195L-15.4367 48.886L-15.6803 47.5346V46.1658L-15.4367 45.0324L-15.1931 43.6722V42.3208L-15.4367 36.4444L-16.8889 31.2393V31.2567ZM-13.0195 481.336L-12.2887 484.274L-12.5323 486.977L-14.2374 489.244L-16.6734 490.831L-19.1094 491.284L-21.7796 490.604L-23.7284 488.791L-24.6934 487.657L-25.6678 486.977L-30.0526 483.812L-34.6622 482.008L-30.0526 479.523L-24.6934 478.625L-23.2412 478.171H-18.1444L-16.6922 478.625L-15.4742 479.296L-14.0126 479.976L-13.0476 481.328L-13.0195 481.336ZM-36.5641 148.812L-33.4067 148.585L-30.0151 147.687L-23.6909 145.656L-22.9601 144.958L-21.7421 144.278L-19.0719 143.598L-17.6103 143.833L-14.7059 146.536L-14.2374 149.021L-14.4717 151.506L-14.7153 152.639L-16.4205 154.444L-17.6385 155.115L-18.8564 155.351H-19.8215L-21.0394 155.115H-22.2574L-26.3798 153.982L-30.0338 152.848L-33.4254 151.044L-36.5828 148.777L-36.5641 148.812ZM-35.3461 82.8718L-35.8146 84.1796L-37.4448 85.2868L-38.8502 86.2198L-40.724 86.5947L-42.5978 86.2198L-45.3898 84.5458L-46.3267 82.8718L-47.4885 81.7645L-49.1187 81.0147L-53.3067 78.4252L-57.9726 76.5594L-54.0094 75.4521L-50.2805 74.8854H-46.0925L-42.1387 75.4521L-37.7071 77.3005L-36.5454 78.0503L-35.6084 78.9745L-35.14 80.4567V81.5727L-35.3742 82.8805L-35.3461 82.8718ZM-63.5472 272.461L-59.912 273.368L-56.5016 274.728L-53.1006 276.995L-50.1962 279.48L-49.709 280.613L-47.7696 281.973L-47.0388 282.88V284.013L-47.526 285.147L-48.744 287.178L-50.4304 288.53L-52.3698 289.663L-54.8058 289.89L-57.4854 289.663L-57.9538 289.21L-59.9026 288.53L-60.3711 287.623V286.49L-59.9026 285.356V280.822L-60.3711 277.657L-61.5891 274.728L-63.5285 272.461H-63.5472ZM-58.2068 364.235L-57.7196 362.203L-56.0332 360.634L-53.8408 359.954L-51.9014 360.407L-49.9526 361.541L-48.7346 363.11L-48.2474 365.377L-48.9782 367.417L-51.4142 369.902L-53.3536 372.605L-54.8152 375.77L-56.0332 378.935L-57.7196 375.534L-58.694 371.925L-58.9376 368.088L-58.2068 364.235ZM-78.847 321.966L-77.1418 323.78L-76.6734 326.265L-76.9076 328.305L-77.882 330.336L-79.1 331.906L-80.065 332.132H-82.248L-83.2224 331.452H-83.9532L-84.9276 331.225L-91.7296 330.327H-99L-96.0956 327.389L-93.1911 324.442L-89.5372 322.411L-83.9438 320.144H-82.2386L-79.3342 321.277L-78.847 321.957V321.966ZM323.426 596.171L319.06 590.748L316.624 588.716L315.65 588.036L315.406 587.801L314.422 587.365L313.457 586.232L312.727 586.005V584.2L313.195 583.747H313.448V583.067L313.935 582.395V581.942H314.404V581.715H314.647V581.489H314.891V581.035H315.387L315.631 580.582H315.865L316.109 580.355H316.84V579.919H320.962V580.355H321.449L321.693 580.582H322.161L322.405 581.035H322.648V581.489H322.892L323.379 581.715V581.942L323.866 582.849V583.52L324.354 583.747L324.597 584.427V585.56L324.841 586.014V586.694L325.075 589.414L324.841 592.352L324.597 593.023V593.704L324.354 594.157V594.384L323.866 594.61V595.064L323.623 595.5V595.726L323.379 596.18L323.426 596.171ZM213.386 579.222L217.761 577.182L222.371 576.048H223.345L226.512 575.595H226.746L226.99 576.048H228.938L229.173 576.501L229.903 576.728L230.878 577.164L231.112 578.071V578.524H231.365V579.204L231.852 579.431V581.698L231.365 581.925V582.831L231.112 583.049V583.503H230.878V583.729H230.634V584.183H230.147V584.409H229.903V584.863H229.66V585.299H229.173L228.938 585.525H228.451L227.477 586.205H224.554L224.31 585.979H224.066L223.598 585.525H223.354L223.111 585.299L222.136 584.401L218.014 581.698L213.395 579.213L213.386 579.222ZM290.887 653.819L284.563 651.788L281.659 650.218L278.988 648.187L275.831 645.022L275.362 644.342L273.901 641.849L273.414 640.044V638.457L273.901 637.324L275.362 635.972L276.815 635.065L278.276 634.839H279.963L281.649 635.519H282.38L283.354 636.652L284.319 638.012L284.807 640.044V643.444L285.294 644.804L286.999 649.321L288.217 651.134L290.887 653.837V653.819ZM229.173 622.85L231.852 623.522L233.539 624.882L234.504 626.451L235.234 627.811V630.758L234.747 630.985L233.529 633.008L231.843 634.141L230.625 634.595H227.955L226.737 634.821H226.502L221.874 636.181L217.264 638.658L217.995 634.141L219.935 629.625H220.178L222.118 626.451L223.092 625.78V625.327L223.336 624.873L225.022 623.966L226.493 623.286L228.432 622.85H229.154H229.173Z" fill="white"/>
</g>
</svg>
